<svg width="12" height="10" viewBox="0 0 12 10" fill="#285a99" xmlns="http://www.w3.org/2000/svg">
<path stroke="#285a99" fill-rule="evenodd" clip-rule="evenodd" d="M1.05262 9.84642L6.48089 5.35836C6.72857 5.15358 6.72857 4.84642 6.48089 4.64164L1.05262 0.153584C0.928779 0.0511953 0.76366 0 0.619181 0C0.474702 0 0.309584 0.0511952 0.185745 0.153584C-0.0619331 0.341297 -0.0619331 0.66553 0.185745 0.870308L5.18058 5L0.185743 9.12969C-0.0619347 9.31741 -0.0619347 9.64164 0.185743 9.84642C0.412781 10.0512 0.804939 10.0512 1.05262 9.84642ZM6.05262 9.84642L11.4809 5.35836C11.7286 5.15358 11.7286 4.84642 11.4809 4.64164L6.05262 0.153584C5.92878 0.0511953 5.76366 0 5.61918 0C5.4747 0 5.30958 0.0511952 5.18574 0.153584C4.93807 0.341297 4.93807 0.66553 5.18574 0.870308L10.1806 5L5.18574 9.12969C4.93807 9.31741 4.93807 9.64164 5.18574 9.84642C5.41278 10.0512 5.80494 10.0512 6.05262 9.84642Z" fill="#000910"/>
</svg>
