<svg width="12" height="10" viewBox="0 0 12 10" fill="#285a99" xmlns="http://www.w3.org/2000/svg">
    <path stroke="#285a99" d="M5.18584 4.64164L10.6141 0.153583C10.8618 -0.0511947 11.254 -0.0511946 11.481 0.153584C11.7287 0.358362 11.7287 0.682594 11.481 0.870307L6.48615 5L11.481 9.12969C11.7287 9.33447 11.7287 9.6587 11.481 9.84642C11.3571 9.9488 11.192 10 11.0476 10C10.9031 10 10.738 9.9488 10.6141 9.84642L5.18584 5.35836C4.93816 5.15358 4.93816 4.84641 5.18584 4.64164Z" fill="#000910"/>
    <path stroke="#285a99" d="M0.185839 4.64164L5.61412 0.153583C5.86179 -0.0511947 6.25395 -0.0511946 6.48099 0.153584C6.72867 0.358362 6.72867 0.682594 6.48099 0.870307L1.48615 5L6.48099 9.12969C6.72867 9.33447 6.72867 9.6587 6.48099 9.84642C6.35715 9.9488 6.19203 10 6.04755 10C5.90307 10 5.73795 9.9488 5.61411 9.84642L0.185839 5.35836C-0.061839 5.15358 -0.0618389 4.84641 0.185839 4.64164Z" fill="#000910"/>
</svg>
